<svg width="185" height="185" viewBox="0 0 185 185" fill="none" xmlns="http://www.w3.org/2000/svg">
<circle cx="92.5" cy="92.5" r="89.5" fill="url(#paint0_linear_1_5)" stroke="white" stroke-width="6"/>
<path d="M88.6562 53.4844L63.1094 123.938H46.8906L72.4375 53.4844H88.6562ZM134.688 106.688C134.688 110.062 133.938 113.047 132.438 115.641C130.938 118.234 128.531 120.266 125.219 121.734C121.938 123.203 117.609 123.938 112.234 123.938C108.453 123.938 105.062 123.734 102.062 123.328C99.0938 122.922 96.0781 122.141 93.0156 120.984V106.312C96.3594 107.844 99.7656 108.953 103.234 109.641C106.703 110.297 109.438 110.625 111.438 110.625C113.5 110.625 115 110.406 115.938 109.969C116.906 109.5 117.391 108.812 117.391 107.906C117.391 107.125 117.062 106.469 116.406 105.938C115.781 105.375 114.641 104.734 112.984 104.016C111.359 103.297 109.062 102.328 106.094 101.109C103.156 99.8906 100.703 98.5625 98.7344 97.125C96.7969 95.6875 95.3438 93.9688 94.375 91.9688C93.4062 89.9688 92.9219 87.5156 92.9219 84.6094C92.9219 79.4219 94.9219 75.5156 98.9219 72.8906C102.922 70.2656 108.219 68.9531 114.812 68.9531C118.312 68.9531 121.609 69.3438 124.703 70.125C127.797 70.875 131 71.9844 134.312 73.4531L129.297 85.2656C126.672 84.0781 124.016 83.125 121.328 82.4062C118.641 81.6875 116.5 81.3281 114.906 81.3281C113.469 81.3281 112.359 81.5156 111.578 81.8906C110.797 82.2656 110.406 82.8125 110.406 83.5312C110.406 84.1875 110.672 84.7656 111.203 85.2656C111.766 85.7656 112.812 86.3438 114.344 87C115.875 87.6562 118.109 88.5781 121.047 89.7656C124.141 91.0156 126.688 92.3594 128.688 93.7969C130.719 95.2031 132.219 96.9219 133.188 98.9531C134.188 100.984 134.688 103.562 134.688 106.688Z" fill="white"/>
<defs>
<linearGradient id="paint0_linear_1_5" x1="-11.5" y1="81.5" x2="169.5" y2="141" gradientUnits="userSpaceOnUse">
<stop offset="0.0958229" stop-color="#27AFD7"/>
<stop offset="0.813008" stop-color="#A955F6"/>
</linearGradient>
</defs>
</svg>
